# xmcd
#
# Track frame offsets: 
#        150
#        3296
#        28284
#        48801
#        67156
#        95009
#        119245
#        140600
#        162358
#        187581
#        207611
#        233409
#        250897
#        277678
#
# Disc length: 3749 seconds
#
# Revision: 0
# Processed by: cddbd v1.5.2PL0 Copyright (c) Steve Scherf et al.
# Submitted via: ExactAudioCopy v1.0b3
#
DISCID=c30ea30e
DTITLE=Various Artist - Biet Kinh Ky
DYEAR=1983
DGENRE=
TTITLE0=Nhu Mai - Loi gioi thieu
TTITLE1=Nhu Mai - Biet kinh ky
TTITLE2=Elvis Phuong - Lanh tron dem mua
TTITLE3=Thai Hien - Que ngheo
TTITLE4=Ngoc Lan - Trang mo ben suoi
TTITLE5=Duy Quang - Mo doi
TTITLE6=Uyen Thanh - Quan nua khuya
TTITLE7=Hai Ly - Co nhung nguoi anh
TTITLE8=Duy Quang - Dam cuoi dau Xuan
TTITLE9=Le Thu - Ngay vui qua mau
TTITLE10=Truc Mai - Hai mua mua
TTITLE11=Connie Kim - Tinh linh
TTITLE12=Uyen Thanh - Can nha ngoai o
TTITLE13=Nhu Mai - Loi ket
EXTD=
EXTT0=
EXTT1=
EXTT2=
EXTT3=
EXTT4=
EXTT5=
EXTT6=
EXTT7=
EXTT8=
EXTT9=
EXTT10=
EXTT11=
EXTT12=
EXTT13=
PLAYORDER=
